<svg width="25" height="25" viewBox="0 0 25 25" fill="none" xmlns="http://www.w3.org/2000/svg">
<path d="M15.5905 21.8267V13.5118C15.5905 13.2361 15.481 12.9718 15.2861 12.7769C15.0912 12.5819 14.8268 12.4724 14.5512 12.4724H10.3937C10.1181 12.4724 9.85369 12.5819 9.65877 12.7769C9.46385 12.9718 9.35435 13.2361 9.35435 13.5118V21.8267M3.11816 10.3937C3.11809 10.0913 3.18399 9.79257 3.31127 9.51828C3.43854 9.24398 3.62412 9.00076 3.85507 8.80557L11.1306 2.57042C11.5058 2.25332 11.9812 2.07935 12.4724 2.07935C12.9637 2.07935 13.4391 2.25332 13.8143 2.57042L21.0898 8.80557C21.3208 9.00076 21.5063 9.24398 21.6336 9.51828C21.7609 9.79257 21.8268 10.0913 21.8267 10.3937V19.748C21.8267 20.2993 21.6077 20.828 21.2179 21.2179C20.828 21.6077 20.2993 21.8267 19.748 21.8267H5.19689C4.64558 21.8267 4.11685 21.6077 3.72701 21.2179C3.33717 20.828 3.11816 20.2993 3.11816 19.748V10.3937Z" stroke="#17809F" stroke-width="2.07873" stroke-linecap="round" stroke-linejoin="round"/>
</svg>
