<svg width="25" height="25" viewBox="0 0 25 25" fill="none" xmlns="http://www.w3.org/2000/svg">
<path d="M15.5905 5.9909C15.268 5.9909 14.9499 5.91584 14.6613 5.77166L10.2835 3.58276C9.99501 3.43858 9.67689 3.36353 9.35435 3.36353M15.5905 5.9909C15.9131 5.9909 16.2312 5.91584 16.5197 5.77166L20.3228 3.86962C20.4813 3.79038 20.6575 3.75302 20.8346 3.76108C21.0117 3.76915 21.1838 3.82237 21.3345 3.9157C21.4853 4.00903 21.6096 4.13935 21.6957 4.29429C21.7819 4.44923 21.827 4.62362 21.8267 4.80089V18.0673C21.8266 18.2603 21.7728 18.4494 21.6713 18.6135C21.5698 18.7777 21.4246 18.9103 21.2519 18.9965L16.5197 21.3632C16.2312 21.5073 15.9131 21.5824 15.5905 21.5824M15.5905 5.9909V21.5824M15.5905 21.5824C15.268 21.5824 14.9499 21.5073 14.6613 21.3632L10.2835 19.1743C9.99501 19.0301 9.67689 18.955 9.35435 18.955C9.0318 18.955 8.71369 19.0301 8.42516 19.1743L4.62213 21.0763C4.46347 21.1556 4.28716 21.1929 4.10999 21.1848C3.93281 21.1767 3.76066 21.1234 3.60991 21.0299C3.45916 20.9365 3.33483 20.806 3.24876 20.6509C3.16269 20.4959 3.11773 20.3213 3.11817 20.144V6.87858C3.11827 6.68561 3.17209 6.49648 3.27361 6.33237C3.37512 6.16826 3.52032 6.03565 3.69294 5.94939L8.42516 3.58276C8.71369 3.43858 9.0318 3.36353 9.35435 3.36353M9.35435 3.36353V18.9539" stroke="#17809F" stroke-width="2.07873" stroke-linecap="round" stroke-linejoin="round"/>
</svg>
