<svg width="25" height="25" viewBox="0 0 25 25" fill="none" xmlns="http://www.w3.org/2000/svg">
<path d="M2.0791 21.8267C2.07922 20.5181 2.3882 19.228 2.98091 18.0614C3.57362 16.8947 4.43333 15.8844 5.49011 15.1126C6.54689 14.3408 7.77091 13.8294 9.06262 13.6199C10.3543 13.4103 11.6773 13.5086 12.9238 13.9068M20.268 14.863L19.8522 15.7984M17.5656 21.6188L17.1499 22.5543M22.5546 20.2677L21.6191 19.8519M15.7987 17.5653L14.8633 17.1496M22.5546 17.1496L21.6191 17.5653M15.7987 19.8519L14.8633 20.2677M20.268 22.5543L19.8522 21.6188M17.5656 15.7984L17.1499 14.863M15.5908 8.31498C15.5908 11.1851 13.2641 13.5118 10.394 13.5118C7.52389 13.5118 5.19719 11.1851 5.19719 8.31498C5.19719 5.44486 7.52389 3.11816 10.394 3.11816C13.2641 3.11816 15.5908 5.44486 15.5908 8.31498ZM21.827 18.7086C21.827 20.4307 20.431 21.8267 18.7089 21.8267C16.9868 21.8267 15.5908 20.4307 15.5908 18.7086C15.5908 16.9865 16.9868 15.5905 18.7089 15.5905C20.431 15.5905 21.827 16.9865 21.827 18.7086Z" stroke="#17809F" stroke-width="2.07873" stroke-linecap="round" stroke-linejoin="round"/>
</svg>
